<?xml version="1.0" encoding="UTF-8" standalone="no"?>
<!-- Created with Inkscape (http://www.inkscape.org/) -->

<svg
   version="1.1"
   id="svg2"
   width="377.94666"
   height="226.77333"
   viewBox="0 0 377.94666 226.77333"
   sodipodi:docname="Hahn-Schickard_Logo_ohne_Claim_CMYK.eps"
   xmlns:inkscape="http://www.inkscape.org/namespaces/inkscape"
   xmlns:sodipodi="http://sodipodi.sourceforge.net/DTD/sodipodi-0.dtd"
   xmlns="http://www.w3.org/2000/svg"
   xmlns:svg="http://www.w3.org/2000/svg">
  <defs
     id="defs6">
    <clipPath
       clipPathUnits="userSpaceOnUse"
       id="clipPath44">
      <path
         d="m 2030.44,994.984 c -113.92,334.436 130.11,511.856 16.69,527.396 -6.67,0.91 -16.94,0.38 -23.59,-0.62 -136.2,-20.15 -254.36,-121.46 -300.13,-259.57 -26.04,-113.6 130.54,-208.43 307.03,-267.206 z"
         id="path42" />
    </clipPath>
    <radialGradient
       fx="0"
       fy="0"
       cx="0"
       cy="0"
       r="1"
       gradientUnits="userSpaceOnUse"
       gradientTransform="matrix(-294.293,-105.67,-105.67,294.293,2055.86,1350.34)"
       spreadMethod="pad"
       id="radialGradient50">
      <stop
         style="stop-opacity:1;stop-color:#b94d34"
         offset="0"
         id="stop46" />
      <stop
         style="stop-opacity:1;stop-color:#7e180f"
         offset="1"
         id="stop48" />
    </radialGradient>
    <clipPath
       clipPathUnits="userSpaceOnUse"
       id="clipPath60">
      <path
         d="m 2074.94,945.188 c -44.63,12.699 -85.76,26.515 -123.11,41.343 -84.66,32.859 -155.47,71.859 -198.04,118.139 -25.09,24.96 -42.37,50.94 -51.29,77.55 -6.95,-44.22 -7.36,-92.44 1.81,-137.89 43.07,-214.924 248.77,-356.83 462.64,-317.951 55.26,10.059 103.55,30.758 145.84,62.562 82.14,61.77 -15.04,89.45 -237.85,156.247 z"
         id="path58" />
    </clipPath>
    <radialGradient
       fx="0"
       fy="0"
       cx="0"
       cy="0"
       r="1"
       gradientUnits="userSpaceOnUse"
       gradientTransform="matrix(-452.677,-84.6672,-84.6672,452.677,2142.4,1166.38)"
       spreadMethod="pad"
       id="radialGradient68">
      <stop
         style="stop-opacity:1;stop-color:#af3c26"
         offset="0"
         id="stop62" />
      <stop
         style="stop-opacity:1;stop-color:#af3c26"
         offset="0.570487"
         id="stop64" />
      <stop
         style="stop-opacity:1;stop-color:#5f110a"
         offset="1"
         id="stop66" />
    </radialGradient>
    <clipPath
       clipPathUnits="userSpaceOnUse"
       id="clipPath78">
      <path
         d="m 2419.73,1424.66 c 113.89,-334.46 -130.12,-511.859 -16.72,-527.418 6.67,-0.926 16.96,-0.375 23.59,0.602 136.19,20.187 254.37,121.486 300.12,259.616 26.07,113.59 -130.5,208.41 -306.99,267.2 z"
         id="path76" />
    </clipPath>
    <radialGradient
       fx="0"
       fy="0"
       cx="0"
       cy="0"
       r="1"
       gradientUnits="userSpaceOnUse"
       gradientTransform="matrix(415.995,42.7622,42.7622,-415.995,2330.03,1048.84)"
       spreadMethod="pad"
       id="radialGradient86">
      <stop
         style="stop-opacity:1;stop-color:#e8d99f"
         offset="0"
         id="stop80" />
      <stop
         style="stop-opacity:1;stop-color:#e8d99f"
         offset="0.233338"
         id="stop82" />
      <stop
         style="stop-opacity:1;stop-color:#a69a71"
         offset="1"
         id="stop84" />
    </radialGradient>
    <clipPath
       clipPathUnits="userSpaceOnUse"
       id="clipPath96">
      <path
         d="m 2374.6,1475.61 c 44.66,-12.69 85.77,-26.52 123.11,-41.33 84.69,-32.87 155.47,-71.87 198.06,-118.14 25.11,-24.98 42.39,-50.96 51.31,-77.53 6.95,44.21 7.33,92.42 -1.81,137.84 -43.1,214.93 -248.78,356.87 -462.66,317.96 -55.22,-10.04 -103.54,-30.75 -145.84,-62.56 -82.14,-61.76 15.05,-89.45 237.83,-156.24 z"
         id="path94" />
    </clipPath>
    <radialGradient
       fx="0"
       fy="0"
       cx="0"
       cy="0"
       r="1"
       gradientUnits="userSpaceOnUse"
       gradientTransform="matrix(452.658,84.6636,84.6636,-452.658,2307.18,1254.44)"
       spreadMethod="pad"
       id="radialGradient106">
      <stop
         style="stop-opacity:1;stop-color:#e8d99f"
         offset="0"
         id="stop98" />
      <stop
         style="stop-opacity:1;stop-color:#e8d99f"
         offset="0.6"
         id="stop100" />
      <stop
         style="stop-opacity:1;stop-color:#bbaf80"
         offset="0.974783"
         id="stop102" />
      <stop
         style="stop-opacity:1;stop-color:#bbaf80"
         offset="1"
         id="stop104" />
    </radialGradient>
  </defs>
  <sodipodi:namedview
     id="namedview4"
     pagecolor="#ffffff"
     bordercolor="#000000"
     borderopacity="0.25"
     inkscape:showpageshadow="2"
     inkscape:pageopacity="0.0"
     inkscape:pagecheckerboard="0"
     inkscape:deskcolor="#d1d1d1" />
  <g
     id="g8"
     inkscape:groupmode="layer"
     inkscape:label="ink_ext_XXXXXX"
     transform="matrix(1.3333333,0,0,-1.3333333,0,226.77333)">
    <g
       id="g10"
       transform="scale(0.1)">
      <path
         d="M 286.641,951.742 V 577.98 c 0,-18.742 -14.512,-31.441 -31.414,-31.441 -17.532,0 -32.063,12.699 -32.063,31.441 V 742.488 H 63.4961 V 577.98 c 0,-18.742 -14.5039,-31.441 -31.457,-31.441 C 14.5039,546.539 0,559.238 0,577.98 v 373.762 c 0,18.129 14.5039,30.828 32.0391,30.828 16.9531,0 31.457,-12.699 31.457,-30.828 V 803.551 H 223.164 v 148.191 c 0,18.129 14.531,30.828 32.063,30.828 16.902,0 31.414,-12.699 31.414,-30.828"
         style="fill:#231f20;fill-opacity:1;fill-rule:nonzero;stroke:none"
         id="path12" />
      <path
         d="m 483.848,683.82 c -37.508,0 -62.317,-9.679 -62.317,-40.519 0,-32.051 24.809,-39.922 63.489,-39.922 19.375,0 37.519,2.422 55.644,7.269 v 73.172 z m 119.14,82.246 V 594.922 c 0,-13.91 -7.859,-28.434 -24.218,-33.871 -24.192,-8.461 -59.25,-14.512 -93.106,-14.512 -76.199,0 -126.418,28.422 -126.418,97.973 0,70.16 57.453,96.761 126.418,96.761 h 55 v 24.188 c 0,23.594 -17.527,42.34 -53.203,42.34 -20.559,0 -37.5,-3.031 -53.231,-10.887 -10.253,-4.848 -18.125,-9.07 -27.792,-9.07 -14.512,0 -29.016,12.09 -29.016,29.023 0,10.285 5.422,19.36 14.504,24.797 16.902,10.285 50.801,23.594 93.094,23.594 64.726,0 117.968,-32.664 117.968,-99.192"
         style="fill:#231f20;fill-opacity:1;fill-rule:nonzero;stroke:none"
         id="path14" />
      <path
         d="M 748.137,951.742 V 847.719 c 19.949,10.879 47.769,17.539 67.742,17.539 73.184,0 113.672,-42.945 113.672,-120.36 V 577.391 c 0,-18.153 -13.281,-30.852 -30.821,-30.852 -18.171,0 -31.457,12.699 -31.457,30.852 v 171.136 c 0,39.317 -21.16,59.274 -58.668,59.274 -21.156,0 -41.718,-6.66 -60.468,-21.172 V 577.391 c 0,-18.153 -13.301,-30.852 -30.84,-30.852 -18.156,0 -31.445,12.699 -31.445,30.852 v 374.351 c 0,18.129 13.289,30.828 31.445,30.828 17.539,0 30.84,-12.699 30.84,-30.828"
         style="fill:#231f20;fill-opacity:1;fill-rule:nonzero;stroke:none"
         id="path16" />
      <path
         d="M 1257.37,746.117 V 577.391 c 0,-18.153 -13.32,-30.852 -30.86,-30.852 -18.13,0 -31.45,12.699 -31.45,30.852 v 171.136 c 0,38.102 -20.56,59.274 -59.85,59.274 -20.56,0 -40.54,-3.031 -59.29,-8.469 V 577.391 c 0,-18.153 -13.29,-30.852 -30.82,-30.852 -18.16,0 -31.47,12.699 -31.47,30.852 V 813.84 c 0,16.945 9.68,30.234 27.22,35.683 29.65,9.684 61.1,15.735 94.36,15.735 81.04,0 122.16,-41.137 122.16,-119.141"
         style="fill:#231f20;fill-opacity:1;fill-rule:nonzero;stroke:none"
         id="path18" />
      <path
         d="m 726.301,413.66 c 12.703,-6.66 18.172,-15.719 18.172,-29.031 0,-16.328 -12.11,-29.027 -27.84,-29.027 -9.68,0 -16.32,3.027 -26.613,7.257 -25.391,10.282 -43.536,13.903 -72.559,13.903 -34.481,0 -67.129,-18.133 -67.129,-50.801 0,-29.02 15.703,-42.93 50.195,-58.652 l 70.774,-32.661 C 711.797,215.91 755.945,188.691 755.945,118.531 755.945,45.3594 696.699,0 618.059,0 c -42.93,0 -79.817,8.46875 -112.5,23.5898 -13.286,6.0508 -19.348,16.3204 -19.348,29.0313 0,18.1406 12.117,30.2305 29.023,30.2305 8.496,0 13.914,-1.8125 27.239,-7.25 21.172,-9.0703 44.121,-16.3321 75.586,-16.3321 43.55,0 73.796,19.961 73.796,57.4495 0,32.652 -18.742,47.179 -55.039,64.711 l -73.789,34.48 c -42.312,19.949 -76.191,51.399 -76.191,107.641 0,68.34 54.434,112.488 134.25,112.488 42.352,0 75.613,-7.859 105.215,-22.379"
         style="fill:#231f20;fill-opacity:1;fill-rule:nonzero;stroke:none"
         id="path20" />
      <path
         d="m 1014.8,297.551 c 9.68,-5.449 15.74,-15.129 15.74,-26 0,-16.34 -11.49,-28.43 -27.83,-28.43 -12.085,0 -18.757,4.84 -30.249,9.68 -12.07,4.828 -27.207,8.461 -45.969,8.461 -36.265,0 -58.66,-21.782 -58.66,-64.102 v -75.601 c 0,-42.3285 21.785,-64.7074 58.66,-64.7074 18.762,0 34.492,4.2265 46.594,9.6797 10.273,4.2304 17.539,8.457 28.424,8.457 16.92,0 29.03,-11.4883 29.03,-28.4297 0,-10.8789 -6.06,-20.5469 -15.74,-26 C 990.625,7.85938 959.18,0 927.715,0 852.734,0 805.547,46.5586 805.547,121.559 v 75.601 c 0,78.012 50.223,121.551 122.168,121.551 31.465,0 62.91,-7.859 87.085,-21.16"
         style="fill:#231f20;fill-opacity:1;fill-rule:nonzero;stroke:none"
         id="path22" />
      <path
         d="M 1142.41,405.199 V 301.172 c 19.99,10.887 47.78,17.539 67.76,17.539 73.17,0 113.68,-42.93 113.68,-120.34 V 30.8516 C 1323.85,12.6914 1310.56,0 1293.01,0 c -18.14,0 -31.45,12.6914 -31.45,30.8516 V 201.988 c 0,39.321 -21.16,59.274 -58.67,59.274 -21.15,0 -41.72,-6.653 -60.48,-21.172 V 30.8516 C 1142.41,12.6914 1129.13,0 1111.59,0 c -18.15,0 -31.45,12.6914 -31.45,30.8516 V 405.199 c 0,18.129 13.3,30.84 31.45,30.84 17.54,0 30.82,-12.711 30.82,-30.84"
         style="fill:#231f20;fill-opacity:1;fill-rule:nonzero;stroke:none"
         id="path24" />
      <path
         d="M 1460.56,287.871 V 30.8516 C 1460.56,12.6914 1447.85,0 1429.72,0 c -18.14,0 -31.47,12.6914 -31.47,30.8516 V 287.871 c 0,18.141 13.33,30.84 31.47,30.84 18.13,0 30.84,-12.699 30.84,-30.84 z m 5.45,111.891 c 0,-20.571 -16.33,-36.903 -36.29,-36.903 -19.97,0 -36.3,16.332 -36.3,36.903 0,19.949 16.33,36.277 36.3,36.277 19.96,0 36.29,-16.328 36.29,-36.277"
         style="fill:#231f20;fill-opacity:1;fill-rule:nonzero;stroke:none"
         id="path26" />
      <path
         d="m 1739.36,297.551 c 9.66,-5.449 15.73,-15.129 15.73,-26 0,-16.34 -11.49,-28.43 -27.83,-28.43 -12.08,0 -18.73,4.84 -30.25,9.68 -12.07,4.828 -27.22,8.461 -45.96,8.461 -36.26,0 -58.66,-21.782 -58.66,-64.102 v -75.601 c 0,-42.3285 21.77,-64.7074 58.66,-64.7074 18.74,0 34.48,4.2265 46.59,9.6797 10.26,4.2304 17.54,8.457 28.41,8.457 16.92,0 29.04,-11.4883 29.04,-28.4297 0,-10.8789 -6.07,-20.5469 -15.73,-26 C 1715.18,7.85938 1683.72,0 1652.26,0 1577.29,0 1530.1,46.5586 1530.1,121.559 v 75.601 c 0,78.012 50.2,121.551 122.16,121.551 31.46,0 62.92,-7.859 87.1,-21.16"
         style="fill:#231f20;fill-opacity:1;fill-rule:nonzero;stroke:none"
         id="path28" />
      <path
         d="M 1866.97,405.199 V 212.27 l 111.29,97.378 c 7.26,6.043 14.51,9.063 22.37,9.063 16.93,0 30.24,-12.699 30.24,-30.242 0,-7.86 -3.02,-15.719 -10.88,-22.367 L 1912.34,175.98 2027.85,50.8008 c 6.05,-6.6524 7.85,-13.3125 7.85,-20.5703 C 2035.7,14.5117 2024.21,0 2005.47,0 c -9.06,0 -17.54,3.62891 -23.58,10.8906 L 1866.97,140.91 V 30.8516 C 1866.97,12.6914 1853.08,0 1836.14,0 c -18.15,0 -31.46,12.6914 -31.46,30.8516 V 405.199 c 0,18.129 12.7,30.84 31.46,30.84 17.53,0 30.83,-12.711 30.83,-30.84"
         style="fill:#231f20;fill-opacity:1;fill-rule:nonzero;stroke:none"
         id="path30" />
      <path
         d="m 2197.19,137.289 c -37.47,0 -62.27,-9.687 -62.27,-40.5273 0,-32.0508 24.8,-39.9101 63.49,-39.9101 19.34,0 37.5,2.4179 55.64,7.25 v 73.1874 z m 119.15,82.242 V 48.3906 c 0,-13.9101 -7.87,-28.4297 -24.18,-33.8789 C 2267.96,6.05078 2232.89,0 2199.02,0 c -76.2,0 -126.39,28.4297 -126.39,97.9688 0,70.1602 57.45,96.7692 126.39,96.7692 h 55.03 v 24.192 c 0,23.582 -17.54,42.332 -53.23,42.332 -20.55,0 -37.47,-3.032 -53.2,-10.891 -10.29,-4.832 -18.15,-9.062 -27.83,-9.062 -14.52,0 -29.03,12.089 -29.03,29.019 0,10.281 5.46,19.352 14.51,24.793 16.94,10.289 50.8,23.59 93.14,23.59 64.72,0 117.93,-32.66 117.93,-99.18"
         style="fill:#231f20;fill-opacity:1;fill-rule:nonzero;stroke:none"
         id="path32" />
      <path
         d="m 2529.22,314.48 c 15.73,-3.031 24.8,-13.921 24.8,-29.628 0,-16.332 -12.11,-28.43 -29.64,-28.43 -9.06,0 -21.16,3.629 -36.26,3.629 -19.37,0 -32.67,-13.301 -32.67,-34.473 V 30.8516 C 2455.45,12.6914 2442.14,0 2424.61,0 c -18.15,0 -31.47,12.6914 -31.47,30.8516 V 227.391 c 0,56.25 35.7,91.32 90.74,91.32 17.53,0 33.86,-1.813 45.34,-4.231"
         style="fill:#231f20;fill-opacity:1;fill-rule:nonzero;stroke:none"
         id="path34" />
      <path
         d="m 2652.62,201.988 v -85.269 c 0,-38.0901 21.16,-59.8674 59.87,-59.8674 20.56,0 41.12,3.0273 59.87,8.457 V 240.699 c -17.55,12.699 -37.49,20.563 -59.87,20.563 -39.31,0 -59.87,-20.563 -59.87,-59.274 z m 182.03,203.211 V 51.4102 c 0,-16.3321 -10.27,-30.25 -26.01,-35.6914 C 2778.41,5.44922 2745.75,0 2712.49,0 2637.5,0 2590.33,39.9102 2590.33,120.34 v 78.031 c 0,79.219 47.17,120.34 116.12,120.34 19.34,0 45.35,-6.039 65.91,-17.539 v 104.027 c 0,18.129 13.31,30.84 30.85,30.84 18.13,0 31.44,-12.711 31.44,-30.84"
         style="fill:#231f20;fill-opacity:1;fill-rule:nonzero;stroke:none"
         id="path36" />
      <g
         id="g38">
        <g
           id="g40"
           clip-path="url(#clipPath44)">
          <path
             d="m 2030.44,994.984 c -113.92,334.436 130.11,511.856 16.69,527.396 -6.67,0.91 -16.94,0.38 -23.59,-0.62 -136.2,-20.15 -254.36,-121.46 -300.13,-259.57 -26.04,-113.6 130.54,-208.43 307.03,-267.206"
             style="fill:url(#radialGradient50);fill-opacity:1;fill-rule:nonzero;stroke:none"
             id="path52" />
        </g>
      </g>
      <g
         id="g54">
        <g
           id="g56"
           clip-path="url(#clipPath60)">
          <path
             d="m 2074.94,945.188 c -44.63,12.699 -85.76,26.515 -123.11,41.343 -84.66,32.859 -155.47,71.859 -198.04,118.139 -25.09,24.96 -42.37,50.94 -51.29,77.55 -6.95,-44.22 -7.36,-92.44 1.81,-137.89 43.07,-214.924 248.77,-356.83 462.64,-317.951 55.26,10.059 103.55,30.758 145.84,62.562 82.14,61.77 -15.04,89.45 -237.85,156.247"
             style="fill:url(#radialGradient68);fill-opacity:1;fill-rule:nonzero;stroke:none"
             id="path70" />
        </g>
      </g>
      <g
         id="g72">
        <g
           id="g74"
           clip-path="url(#clipPath78)">
          <path
             d="m 2419.73,1424.66 c 113.89,-334.46 -130.12,-511.859 -16.72,-527.418 6.67,-0.926 16.96,-0.375 23.59,0.602 136.19,20.187 254.37,121.486 300.12,259.616 26.07,113.59 -130.5,208.41 -306.99,267.2"
             style="fill:url(#radialGradient86);fill-opacity:1;fill-rule:nonzero;stroke:none"
             id="path88" />
        </g>
      </g>
      <g
         id="g90">
        <g
           id="g92"
           clip-path="url(#clipPath96)">
          <path
             d="m 2374.6,1475.61 c 44.66,-12.69 85.77,-26.52 123.11,-41.33 84.69,-32.87 155.47,-71.87 198.06,-118.14 25.11,-24.98 42.39,-50.96 51.31,-77.53 6.95,44.21 7.33,92.42 -1.81,137.84 -43.1,214.93 -248.78,356.87 -462.66,317.96 -55.22,-10.04 -103.54,-30.75 -145.84,-62.56 -82.14,-61.76 15.05,-89.45 237.83,-156.24"
             style="fill:url(#radialGradient106);fill-opacity:1;fill-rule:nonzero;stroke:none"
             id="path108" />
        </g>
      </g>
    </g>
  </g>
</svg>
