<?xml version="1.0" encoding="UTF-8" standalone="no" ?>
<!DOCTYPE svg PUBLIC "-//W3C//DTD SVG 1.1//EN" "http://www.w3.org/Graphics/SVG/1.1/DTD/svg11.dtd">
<svg xmlns="http://www.w3.org/2000/svg" xmlns:xlink="http://www.w3.org/1999/xlink" version="1.1" width="1080" height="1080" viewBox="0 0 1080 1080" xml:space="preserve">
<desc>Created with Fabric.js 5.2.4</desc>
<defs>
</defs>
<rect x="0" y="0" width="100%" height="100%" fill="transparent"></rect>
<g transform="matrix(1 0 0 1 540 540)" id="625b5137-8188-4c2a-8d61-618d1454e72a"  >
<rect style="stroke: none; stroke-width: 1; stroke-dasharray: none; stroke-linecap: butt; stroke-dashoffset: 0; stroke-linejoin: miter; stroke-miterlimit: 4; fill: rgb(255,255,255); fill-rule: nonzero; opacity: 1; visibility: hidden;" vector-effect="non-scaling-stroke"  x="-540" y="-540" rx="0" ry="0" width="1080" height="1080" />
</g>
<g transform="matrix(1 0 0 1 540 540)" id="242b659f-18b7-4662-a89c-2c5ec400030d"  >
</g>
<g transform="matrix(NaN NaN NaN NaN 0 0)"  >
<g style=""   >
</g>
</g>
<g transform="matrix(NaN NaN NaN NaN 0 0)"  >
<g style=""   >
</g>
</g>
<g transform="matrix(2.13 0 0 2.13 540 540)"  >
<g style="" vector-effect="non-scaling-stroke"   >
		<g transform="matrix(0.13 0 0 -0.13 -169.87 11.45)" id="path12"  >
<path style="stroke: none; stroke-width: 1; stroke-dasharray: none; stroke-linecap: butt; stroke-dashoffset: 0; stroke-linejoin: miter; stroke-miterlimit: 4; fill: rgb(255,255,255); fill-rule: nonzero; opacity: 1;" vector-effect="non-scaling-stroke"  transform=" translate(-143.32, -764.55)" d="M 286.641 951.742 L 286.641 577.98 C 286.641 559.238 272.129 546.539 255.22700000000003 546.539 C 237.69500000000002 546.539 223.16400000000004 559.2379999999999 223.16400000000004 577.98 L 223.16400000000004 742.488 L 63.4961 742.488 L 63.4961 577.98 C 63.4961 559.238 48.9922 546.539 32.0391 546.539 C 14.5039 546.539 0 559.238 0 577.98 L 0 951.742 C 0 969.871 14.5039 982.5699999999999 32.0391 982.5699999999999 C 48.9922 982.5699999999999 63.4961 969.871 63.4961 951.742 L 63.4961 803.551 L 223.164 803.551 L 223.164 951.7420000000001 C 223.164 969.8710000000001 237.695 982.57 255.22699999999998 982.57 C 272.12899999999996 982.57 286.64099999999996 969.8710000000001 286.64099999999996 951.7420000000001" stroke-linecap="round" />
</g>
		<g transform="matrix(0.13 0 0 -0.13 -124.83 19.27)" id="path14"  >
<path style="stroke: none; stroke-width: 1; stroke-dasharray: none; stroke-linecap: butt; stroke-dashoffset: 0; stroke-linejoin: miter; stroke-miterlimit: 4; fill: rgb(255,255,255); fill-rule: nonzero; opacity: 1;" vector-effect="non-scaling-stroke"  transform=" translate(-481.12, -705.9)" d="M 483.848 683.82 C 446.34000000000003 683.82 421.531 674.1410000000001 421.531 643.301 C 421.531 611.25 446.34000000000003 603.379 485.02 603.379 C 504.395 603.379 522.539 605.801 540.664 610.648 L 540.664 683.82 z M 602.988 766.066 L 602.988 594.922 C 602.988 581.0120000000001 595.129 566.488 578.7700000000001 561.051 C 554.5780000000001 552.59 519.5200000000001 546.539 485.6640000000001 546.539 C 409.4650000000001 546.539 359.2460000000001 574.961 359.2460000000001 644.512 C 359.2460000000001 714.6719999999999 416.69900000000007 741.2729999999999 485.6640000000001 741.2729999999999 L 540.6640000000001 741.2729999999999 L 540.6640000000001 765.4609999999999 C 540.6640000000001 789.055 523.1370000000001 807.8009999999999 487.4610000000001 807.8009999999999 C 466.9020000000001 807.8009999999999 449.9610000000001 804.77 434.23000000000013 796.914 C 423.97700000000015 792.066 416.10500000000013 787.8439999999999 406.4380000000001 787.8439999999999 C 391.9260000000001 787.8439999999999 377.4220000000001 799.934 377.4220000000001 816.867 C 377.4220000000001 827.1519999999999 382.8440000000001 836.227 391.9260000000001 841.664 C 408.8280000000001 851.949 442.7270000000001 865.258 485.0200000000001 865.258 C 549.7460000000001 865.258 602.988 832.594 602.988 766.066" stroke-linecap="round" />
</g>
		<g transform="matrix(0.13 0 0 -0.13 -81.28 11.45)" id="path16"  >
<path style="stroke: none; stroke-width: 1; stroke-dasharray: none; stroke-linecap: butt; stroke-dashoffset: 0; stroke-linejoin: miter; stroke-miterlimit: 4; fill: rgb(255,255,255); fill-rule: nonzero; opacity: 1;" vector-effect="non-scaling-stroke"  transform=" translate(-807.7, -764.55)" d="M 748.137 951.742 L 748.137 847.719 C 768.0859999999999 858.5980000000001 795.906 865.258 815.8789999999999 865.258 C 889.0629999999999 865.258 929.5509999999999 822.313 929.5509999999999 744.898 L 929.5509999999999 577.391 C 929.5509999999999 559.2379999999999 916.27 546.539 898.7299999999999 546.539 C 880.5589999999999 546.539 867.2729999999999 559.2379999999999 867.2729999999999 577.391 L 867.2729999999999 748.5269999999999 C 867.2729999999999 787.8439999999999 846.1129999999999 807.8009999999999 808.6049999999999 807.8009999999999 C 787.449 807.8009999999999 766.887 801.141 748.137 786.6289999999999 L 748.137 577.391 C 748.137 559.2379999999999 734.8359999999999 546.539 717.2969999999999 546.539 C 699.141 546.539 685.8519999999999 559.2379999999999 685.8519999999999 577.391 L 685.8519999999999 951.742 C 685.8519999999999 969.871 699.1409999999998 982.5699999999999 717.2969999999999 982.5699999999999 C 734.8359999999999 982.5699999999999 748.137 969.871 748.137 951.742" stroke-linecap="round" />
</g>
		<g transform="matrix(0.13 0 0 -0.13 -37.58 19.27)" id="path18"  >
<path style="stroke: none; stroke-width: 1; stroke-dasharray: none; stroke-linecap: butt; stroke-dashoffset: 0; stroke-linejoin: miter; stroke-miterlimit: 4; fill: rgb(255,255,255); fill-rule: nonzero; opacity: 1;" vector-effect="non-scaling-stroke"  transform=" translate(-1135.5, -705.9)" d="M 1257.37 746.117 L 1257.37 577.391 C 1257.37 559.2379999999999 1244.05 546.539 1226.51 546.539 C 1208.3799999999999 546.539 1195.06 559.2379999999999 1195.06 577.391 L 1195.06 748.5269999999999 C 1195.06 786.6289999999999 1174.5 807.8009999999999 1135.21 807.8009999999999 C 1114.65 807.8009999999999 1094.67 804.77 1075.92 799.3319999999999 L 1075.92 577.391 C 1075.92 559.2379999999999 1062.63 546.539 1045.1000000000001 546.539 C 1026.94 546.539 1013.6300000000001 559.2379999999999 1013.6300000000001 577.391 L 1013.6300000000001 813.84 C 1013.6300000000001 830.7850000000001 1023.3100000000001 844.0740000000001 1040.8500000000001 849.523 C 1070.5000000000002 859.207 1101.95 865.258 1135.21 865.258 C 1216.25 865.258 1257.3700000000001 824.1210000000001 1257.3700000000001 746.1170000000001" stroke-linecap="round" />
</g>
		<g transform="matrix(0.13 0 0 -0.13 -106.17 84.32)" id="path20"  >
<path style="stroke: none; stroke-width: 1; stroke-dasharray: none; stroke-linecap: butt; stroke-dashoffset: 0; stroke-linejoin: miter; stroke-miterlimit: 4; fill: rgb(255,255,255); fill-rule: nonzero; opacity: 1;" vector-effect="non-scaling-stroke"  transform=" translate(-621.08, -218.02)" d="M 726.301 413.66 C 739.004 407 744.4730000000001 397.94100000000003 744.4730000000001 384.629 C 744.4730000000001 368.30100000000004 732.363 355.60200000000003 716.633 355.60200000000003 C 706.9530000000001 355.60200000000003 700.313 358.629 690.02 362.85900000000004 C 664.629 373.141 646.4839999999999 376.76200000000006 617.461 376.76200000000006 C 582.98 376.76200000000006 550.332 358.6290000000001 550.332 325.96100000000007 C 550.332 296.9410000000001 566.035 283.03100000000006 600.527 267.3090000000001 L 671.301 234.64800000000008 C 711.797 215.91 755.945 188.691 755.945 118.531 C 755.945 45.3594 696.699 0 618.059 0 C 575.129 0 538.242 8.46875 505.55899999999997 23.5898 C 492.27299999999997 29.6406 486.21099999999996 39.9102 486.21099999999996 52.6211 C 486.21099999999996 70.76169999999999 498.328 82.85159999999999 515.2339999999999 82.85159999999999 C 523.7299999999999 82.85159999999999 529.1479999999999 81.03909999999999 542.473 75.60159999999999 C 563.645 66.53129999999999 586.5939999999999 59.269499999999994 618.059 59.269499999999994 C 661.6089999999999 59.269499999999994 691.855 79.23049999999999 691.855 116.719 C 691.855 149.37099999999998 673.113 163.898 636.816 181.43 L 563.027 215.91 C 520.715 235.859 486.836 267.30899999999997 486.836 323.551 C 486.836 391.89099999999996 541.27 436.039 621.086 436.039 C 663.438 436.039 696.6990000000001 428.18 726.301 413.65999999999997" stroke-linecap="round" />
</g>
		<g transform="matrix(0.13 0 0 -0.13 -66.57 92.14)" id="path22"  >
<path style="stroke: none; stroke-width: 1; stroke-dasharray: none; stroke-linecap: butt; stroke-dashoffset: 0; stroke-linejoin: miter; stroke-miterlimit: 4; fill: rgb(255,255,255); fill-rule: nonzero; opacity: 1;" vector-effect="non-scaling-stroke"  transform=" translate(-918.04, -159.36)" d="M 1014.8 297.551 C 1024.48 292.102 1030.54 282.42199999999997 1030.54 271.551 C 1030.54 255.21099999999998 1019.05 243.12099999999998 1002.7099999999999 243.12099999999998 C 990.6249999999999 243.12099999999998 983.953 247.96099999999998 972.4609999999999 252.801 C 960.3909999999998 257.62899999999996 945.2539999999999 261.262 926.4919999999998 261.262 C 890.2269999999999 261.262 867.8319999999999 239.48 867.8319999999999 197.16 L 867.8319999999999 121.559 C 867.8319999999999 79.2305 889.6169999999998 56.85159999999999 926.4919999999998 56.85159999999999 C 945.2539999999999 56.85159999999999 960.9839999999998 61.07809999999999 973.0859999999999 66.53129999999999 C 983.3589999999999 70.76169999999999 990.6249999999999 74.98829999999998 1001.5099999999999 74.98829999999998 C 1018.4299999999998 74.98829999999998 1030.54 63.49999999999998 1030.54 46.558599999999984 C 1030.54 35.67969999999998 1024.48 26.011699999999983 1014.8 20.558599999999984 C 990.625 7.85938 959.18 0 927.715 0 C 852.734 0 805.547 46.5586 805.547 121.559 L 805.547 197.16 C 805.547 275.172 855.77 318.711 927.715 318.711 C 959.1800000000001 318.711 990.625 310.85200000000003 1014.8000000000001 297.551" stroke-linecap="round" />
</g>
		<g transform="matrix(0.13 0 0 -0.13 -28.71 84.32)" id="path24"  >
<path style="stroke: none; stroke-width: 1; stroke-dasharray: none; stroke-linecap: butt; stroke-dashoffset: 0; stroke-linejoin: miter; stroke-miterlimit: 4; fill: rgb(255,255,255); fill-rule: nonzero; opacity: 1;" vector-effect="non-scaling-stroke"  transform=" translate(-1201.99, -218.02)" d="M 1142.41 405.199 L 1142.41 301.172 C 1162.4 312.059 1190.19 318.711 1210.17 318.711 C 1283.3400000000001 318.711 1323.8500000000001 275.781 1323.8500000000001 198.371 L 1323.8500000000001 30.8516 C 1323.85 12.6914 1310.56 0 1293.01 0 C 1274.87 0 1261.56 12.6914 1261.56 30.8516 L 1261.56 201.988 C 1261.56 241.309 1240.3999999999999 261.262 1202.8899999999999 261.262 C 1181.7399999999998 261.262 1161.1699999999998 254.609 1142.4099999999999 240.09 L 1142.4099999999999 30.8516 C 1142.41 12.6914 1129.13 0 1111.59 0 C 1093.4399999999998 0 1080.1399999999999 12.6914 1080.1399999999999 30.8516 L 1080.1399999999999 405.199 C 1080.1399999999999 423.32800000000003 1093.4399999999998 436.039 1111.59 436.039 C 1129.1299999999999 436.039 1142.4099999999999 423.328 1142.4099999999999 405.199" stroke-linecap="round" />
</g>
		<g transform="matrix(0.13 0 0 -0.13 1.65 84.32)" id="path26"  >
<path style="stroke: none; stroke-width: 1; stroke-dasharray: none; stroke-linecap: butt; stroke-dashoffset: 0; stroke-linejoin: miter; stroke-miterlimit: 4; fill: rgb(255,255,255); fill-rule: nonzero; opacity: 1;" vector-effect="non-scaling-stroke"  transform=" translate(-1429.72, -218.02)" d="M 1460.56 287.871 L 1460.56 30.8516 C 1460.56 12.6914 1447.85 0 1429.72 0 C 1411.58 0 1398.25 12.6914 1398.25 30.8516 L 1398.25 287.871 C 1398.25 306.012 1411.58 318.71099999999996 1429.72 318.71099999999996 C 1447.8500000000001 318.71099999999996 1460.56 306.01199999999994 1460.56 287.871 z M 1466.01 399.762 C 1466.01 379.191 1449.68 362.859 1429.72 362.859 C 1409.75 362.859 1393.42 379.191 1393.42 399.762 C 1393.42 419.711 1409.75 436.039 1429.72 436.039 C 1449.68 436.039 1466.01 419.711 1466.01 399.762" stroke-linecap="round" />
</g>
		<g transform="matrix(0.13 0 0 -0.13 30.04 92.14)" id="path28"  >
<path style="stroke: none; stroke-width: 1; stroke-dasharray: none; stroke-linecap: butt; stroke-dashoffset: 0; stroke-linejoin: miter; stroke-miterlimit: 4; fill: rgb(255,255,255); fill-rule: nonzero; opacity: 1;" vector-effect="non-scaling-stroke"  transform=" translate(-1642.59, -159.36)" d="M 1739.36 297.551 C 1749.02 292.102 1755.09 282.42199999999997 1755.09 271.551 C 1755.09 255.21099999999998 1743.6 243.12099999999998 1727.26 243.12099999999998 C 1715.18 243.12099999999998 1708.53 247.96099999999998 1697.01 252.801 C 1684.94 257.62899999999996 1669.79 261.262 1651.05 261.262 C 1614.79 261.262 1592.3899999999999 239.48 1592.3899999999999 197.16 L 1592.3899999999999 121.559 C 1592.3899999999999 79.2305 1614.1599999999999 56.85159999999999 1651.05 56.85159999999999 C 1669.79 56.85159999999999 1685.53 61.07809999999999 1697.6399999999999 66.53129999999999 C 1707.8999999999999 70.76169999999999 1715.1799999999998 74.98829999999998 1726.05 74.98829999999998 C 1742.97 74.98829999999998 1755.09 63.49999999999998 1755.09 46.558599999999984 C 1755.09 35.67969999999998 1749.02 26.011699999999983 1739.36 20.558599999999984 C 1715.18 7.85938 1683.72 0 1652.26 0 C 1577.29 0 1530.1 46.5586 1530.1 121.559 L 1530.1 197.16 C 1530.1 275.172 1580.3 318.711 1652.26 318.711 C 1683.72 318.711 1715.18 310.85200000000003 1739.36 297.551" stroke-linecap="round" />
</g>
		<g transform="matrix(0.13 0 0 -0.13 67.05 84.32)" id="path30"  >
<path style="stroke: none; stroke-width: 1; stroke-dasharray: none; stroke-linecap: butt; stroke-dashoffset: 0; stroke-linejoin: miter; stroke-miterlimit: 4; fill: rgb(255,255,255); fill-rule: nonzero; opacity: 1;" vector-effect="non-scaling-stroke"  transform=" translate(-1920.19, -218.02)" d="M 1866.97 405.199 L 1866.97 212.27 L 1978.26 309.648 C 1985.52 315.69100000000003 1992.77 318.711 2000.6299999999999 318.711 C 2017.56 318.711 2030.87 306.012 2030.87 288.469 C 2030.87 280.609 2027.85 272.75 2019.9899999999998 266.102 L 1912.34 175.98 L 2027.85 50.8008 C 2033.8999999999999 44.1484 2035.6999999999998 37.4883 2035.6999999999998 30.230500000000003 C 2035.7 14.5117 2024.21 0 2005.47 0 C 1996.41 0 1987.93 3.62891 1981.89 10.8906 L 1866.97 140.91 L 1866.97 30.8516 C 1866.97 12.6914 1853.08 0 1836.14 0 C 1817.99 0 1804.68 12.6914 1804.68 30.8516 L 1804.68 405.199 C 1804.68 423.32800000000003 1817.38 436.039 1836.14 436.039 C 1853.67 436.039 1866.97 423.328 1866.97 405.199" stroke-linecap="round" />
</g>
		<g transform="matrix(0.13 0 0 -0.13 103.62 92.14)" id="path32"  >
<path style="stroke: none; stroke-width: 1; stroke-dasharray: none; stroke-linecap: butt; stroke-dashoffset: 0; stroke-linejoin: miter; stroke-miterlimit: 4; fill: rgb(255,255,255); fill-rule: nonzero; opacity: 1;" vector-effect="non-scaling-stroke"  transform=" translate(-2194.49, -159.36)" d="M 2197.19 137.289 C 2159.7200000000003 137.289 2134.92 127.60199999999999 2134.92 96.76169999999999 C 2134.92 64.71089999999998 2159.7200000000003 56.85159999999999 2198.41 56.85159999999999 C 2217.75 56.85159999999999 2235.91 59.269499999999994 2254.0499999999997 64.10159999999999 L 2254.0499999999997 137.289 z M 2316.34 219.531 L 2316.34 48.3906 C 2316.34 34.4805 2308.4700000000003 19.9609 2292.1600000000003 14.511699999999998 C 2267.96 6.05078 2232.89 0 2199.02 0 C 2122.82 0 2072.63 28.4297 2072.63 97.9688 C 2072.63 168.12900000000002 2130.08 194.738 2199.02 194.738 L 2254.05 194.738 L 2254.05 218.93 C 2254.05 242.512 2236.51 261.262 2200.82 261.262 C 2180.27 261.262 2163.3500000000004 258.23 2147.6200000000003 250.371 C 2137.3300000000004 245.53900000000002 2129.4700000000003 241.309 2119.7900000000004 241.309 C 2105.2700000000004 241.309 2090.76 253.398 2090.76 270.328 C 2090.76 280.609 2096.2200000000003 289.67999999999995 2105.2700000000004 295.121 C 2122.2100000000005 305.40999999999997 2156.0700000000006 318.71099999999996 2198.4100000000003 318.71099999999996 C 2263.13 318.71099999999996 2316.34 286.05099999999993 2316.34 219.53099999999995" stroke-linecap="round" />
</g>
		<g transform="matrix(0.13 0 0 -0.13 140.83 92.14)" id="path34"  >
<path style="stroke: none; stroke-width: 1; stroke-dasharray: none; stroke-linecap: butt; stroke-dashoffset: 0; stroke-linejoin: miter; stroke-miterlimit: 4; fill: rgb(255,255,255); fill-rule: nonzero; opacity: 1;" vector-effect="non-scaling-stroke"  transform=" translate(-2473.58, -159.36)" d="M 2529.22 314.48 C 2544.95 311.449 2554.02 300.559 2554.02 284.85200000000003 C 2554.02 268.52000000000004 2541.91 256.422 2524.38 256.422 C 2515.32 256.422 2503.2200000000003 260.05100000000004 2488.12 260.05100000000004 C 2468.75 260.05100000000004 2455.45 246.75000000000006 2455.45 225.57800000000003 L 2455.45 30.8516 C 2455.45 12.6914 2442.14 0 2424.61 0 C 2406.46 0 2393.1400000000003 12.6914 2393.1400000000003 30.8516 L 2393.1400000000003 227.391 C 2393.1400000000003 283.64099999999996 2428.84 318.711 2483.88 318.711 C 2501.4100000000003 318.711 2517.7400000000002 316.898 2529.2200000000003 314.48" stroke-linecap="round" />
</g>
		<g transform="matrix(0.13 0 0 -0.13 172.69 84.32)" id="path36"  >
<path style="stroke: none; stroke-width: 1; stroke-dasharray: none; stroke-linecap: butt; stroke-dashoffset: 0; stroke-linejoin: miter; stroke-miterlimit: 4; fill: rgb(255,255,255); fill-rule: nonzero; opacity: 1;" vector-effect="non-scaling-stroke"  transform=" translate(-2712.49, -218.02)" d="M 2652.62 201.988 L 2652.62 116.719 C 2652.62 78.62889999999999 2673.7799999999997 56.85159999999999 2712.49 56.85159999999999 C 2733.0499999999997 56.85159999999999 2753.6099999999997 59.87889999999999 2772.3599999999997 65.30859999999998 L 2772.3599999999997 240.699 C 2754.8099999999995 253.39800000000002 2734.87 261.262 2712.49 261.262 C 2673.18 261.262 2652.62 240.699 2652.62 201.988 z M 2834.65 405.199 L 2834.65 51.4102 C 2834.65 35.078100000000006 2824.38 21.160200000000003 2808.64 15.718800000000002 C 2778.41 5.44922 2745.75 0 2712.49 0 C 2637.5 0 2590.33 39.9102 2590.33 120.34 L 2590.33 198.371 C 2590.33 277.59000000000003 2637.5 318.711 2706.45 318.711 C 2725.79 318.711 2751.7999999999997 312.672 2772.3599999999997 301.172 L 2772.3599999999997 405.199 C 2772.3599999999997 423.32800000000003 2785.6699999999996 436.039 2803.2099999999996 436.039 C 2821.3399999999997 436.039 2834.6499999999996 423.328 2834.6499999999996 405.199" stroke-linecap="round" />
</g>
		<g transform="matrix(0.13 0 0 -0.13 64.26 -54.47)" id="path52" clip-path="url(#CLIPPATH_15)"  >
<clipPath id="CLIPPATH_15" >
	<path transform="matrix(1 0 0 1 0 0) translate(-1899.29, -1258.92)" id="path42" d="M 2030.44 994.984 C 1916.52 1329.42 2160.55 1506.8400000000001 2047.13 1522.38 C 2040.46 1523.2900000000002 2030.19 1522.7600000000002 2023.5400000000002 1521.7600000000002 C 1887.3400000000001 1501.6100000000001 1769.1800000000003 1400.3000000000002 1723.4100000000003 1262.1900000000003 C 1697.3700000000003 1148.5900000000004 1853.9500000000003 1053.7600000000002 2030.4400000000003 994.9840000000003 z" stroke-linecap="round" />
</clipPath>
<path style="stroke: none; stroke-width: 1; stroke-dasharray: none; stroke-linecap: butt; stroke-dashoffset: 0; stroke-linejoin: miter; stroke-miterlimit: 4; fill: rgb(255,255,255); fill-rule: nonzero; opacity: 1;" vector-effect="non-scaling-stroke"  transform=" translate(-1899.29, -1258.92)" d="M 2030.44 994.984 C 1916.52 1329.42 2160.55 1506.8400000000001 2047.13 1522.38 C 2040.46 1523.2900000000002 2030.19 1522.7600000000002 2023.5400000000002 1521.7600000000002 C 1887.3400000000001 1501.6100000000001 1769.1800000000003 1400.3000000000002 1723.4100000000003 1262.1900000000003 C 1697.3700000000003 1148.5900000000004 1853.9500000000003 1053.7600000000002 2030.4400000000003 994.9840000000003" stroke-linecap="round" />
</g>
		<g transform="matrix(0.13 0 0 -0.13 80.29 -13.42)" id="path70" clip-path="url(#CLIPPATH_16)"  >
<clipPath id="CLIPPATH_16" >
	<path transform="matrix(1 0 0 1 0 0) translate(-2019.52, -951.09)" id="path58" d="M 2074.94 945.188 C 2030.31 957.887 1989.18 971.703 1951.8300000000002 986.531 C 1867.17 1019.39 1796.3600000000001 1058.3899999999999 1753.7900000000002 1104.6699999999998 C 1728.7000000000003 1129.6299999999999 1711.4200000000003 1155.61 1702.5000000000002 1182.2199999999998 C 1695.5500000000002 1137.9999999999998 1695.1400000000003 1089.7799999999997 1704.3100000000002 1044.33 C 1747.38 829.406 1953.0800000000002 687.5 2166.9500000000003 726.3789999999999 C 2222.2100000000005 736.4379999999999 2270.5000000000005 757.137 2312.7900000000004 788.9409999999999 C 2394.9300000000003 850.7109999999999 2297.7500000000005 878.391 2074.9400000000005 945.1879999999999 z" stroke-linecap="round" />
</clipPath>
<path style="stroke: none; stroke-width: 1; stroke-dasharray: none; stroke-linecap: butt; stroke-dashoffset: 0; stroke-linejoin: miter; stroke-miterlimit: 4; fill: rgb(255,255,255); fill-rule: nonzero; opacity: 1;" vector-effect="non-scaling-stroke"  transform=" translate(-2019.52, -951.09)" d="M 2074.94 945.188 C 2030.31 957.887 1989.18 971.703 1951.8300000000002 986.531 C 1867.17 1019.39 1796.3600000000001 1058.3899999999999 1753.7900000000002 1104.6699999999998 C 1728.7000000000003 1129.6299999999999 1711.4200000000003 1155.61 1702.5000000000002 1182.2199999999998 C 1695.5500000000002 1137.9999999999998 1695.1400000000003 1089.7799999999997 1704.3100000000002 1044.33 C 1747.38 829.406 1953.0800000000002 687.5 2166.9500000000003 726.3789999999999 C 2222.2100000000005 736.4379999999999 2270.5000000000005 757.137 2312.7900000000004 788.9409999999999 C 2394.9300000000003 850.7109999999999 2297.7500000000005 878.391 2074.9400000000005 945.1879999999999" stroke-linecap="round" />
</g>
		<g transform="matrix(0.13 0 0 -0.13 151.14 -41.37)" id="path88" clip-path="url(#CLIPPATH_17)"  >
<clipPath id="CLIPPATH_17" >
	<path transform="matrix(1 0 0 1 0 0) translate(-2550.85, -1160.71)" id="path76" d="M 2419.73 1424.66 C 2533.62 1090.2 2289.61 912.8010000000002 2403.01 897.2420000000001 C 2409.6800000000003 896.316 2419.9700000000003 896.8670000000001 2426.6000000000004 897.844 C 2562.7900000000004 918.0310000000001 2680.9700000000003 1019.33 2726.7200000000003 1157.46 C 2752.7900000000004 1271.05 2596.2200000000003 1365.8700000000001 2419.7300000000005 1424.66 z" stroke-linecap="round" />
</clipPath>
<path style="stroke: none; stroke-width: 1; stroke-dasharray: none; stroke-linecap: butt; stroke-dashoffset: 0; stroke-linejoin: miter; stroke-miterlimit: 4; fill: rgb(255,255,255); fill-rule: nonzero; opacity: 1;" vector-effect="non-scaling-stroke"  transform=" translate(-2550.85, -1160.71)" d="M 2419.73 1424.66 C 2533.62 1090.2 2289.61 912.8010000000002 2403.01 897.2420000000001 C 2409.6800000000003 896.316 2419.9700000000003 896.8670000000001 2426.6000000000004 897.844 C 2562.7900000000004 918.0310000000001 2680.9700000000003 1019.33 2726.7200000000003 1157.46 C 2752.7900000000004 1271.05 2596.2200000000003 1365.8700000000001 2419.7300000000005 1424.66" stroke-linecap="round" />
</g>
		<g transform="matrix(0.13 0 0 -0.13 135.03 -82.57)" id="path108" clip-path="url(#CLIPPATH_18)"  >
<clipPath id="CLIPPATH_18" >
	<path transform="matrix(1 0 0 1 0 0) translate(-2430.05, -1469.72)" id="path94" d="M 2374.6 1475.61 C 2419.2599999999998 1462.9199999999998 2460.37 1449.09 2497.71 1434.28 C 2582.4 1401.41 2653.18 1362.4099999999999 2695.77 1316.1399999999999 C 2720.88 1291.1599999999999 2738.16 1265.1799999999998 2747.08 1238.61 C 2754.0299999999997 1282.82 2754.41 1331.03 2745.27 1376.4499999999998 C 2702.17 1591.3799999999999 2496.49 1733.3199999999997 2282.61 1694.4099999999999 C 2227.3900000000003 1684.37 2179.07 1663.6599999999999 2136.77 1631.85 C 2054.63 1570.09 2151.82 1542.3999999999999 2374.6 1475.61 z" stroke-linecap="round" />
</clipPath>
<path style="stroke: none; stroke-width: 1; stroke-dasharray: none; stroke-linecap: butt; stroke-dashoffset: 0; stroke-linejoin: miter; stroke-miterlimit: 4; fill: rgb(255,255,255); fill-rule: nonzero; opacity: 1;" vector-effect="non-scaling-stroke"  transform=" translate(-2430.05, -1469.72)" d="M 2374.6 1475.61 C 2419.2599999999998 1462.9199999999998 2460.37 1449.09 2497.71 1434.28 C 2582.4 1401.41 2653.18 1362.4099999999999 2695.77 1316.1399999999999 C 2720.88 1291.1599999999999 2738.16 1265.1799999999998 2747.08 1238.61 C 2754.0299999999997 1282.82 2754.41 1331.03 2745.27 1376.4499999999998 C 2702.17 1591.3799999999999 2496.49 1733.3199999999997 2282.61 1694.4099999999999 C 2227.3900000000003 1684.37 2179.07 1663.6599999999999 2136.77 1631.85 C 2054.63 1570.09 2151.82 1542.3999999999999 2374.6 1475.61" stroke-linecap="round" />
</g>
</g>
</g>
</svg>