<?xml version="1.0" encoding="UTF-8" standalone="no" ?>
<!DOCTYPE svg PUBLIC "-//W3C//DTD SVG 1.1//EN" "http://www.w3.org/Graphics/SVG/1.1/DTD/svg11.dtd">
<svg xmlns="http://www.w3.org/2000/svg" xmlns:xlink="http://www.w3.org/1999/xlink" version="1.1" width="1080" height="1080" viewBox="0 0 1080 1080" xml:space="preserve">
<desc>Created with Fabric.js 5.2.4</desc>
<defs>
</defs>
<rect x="0" y="0" width="100%" height="100%" fill="transparent"></rect>
<g transform="matrix(1 0 0 1 540 540)" id="625b5137-8188-4c2a-8d61-618d1454e72a"  >
<rect style="stroke: none; stroke-width: 1; stroke-dasharray: none; stroke-linecap: butt; stroke-dashoffset: 0; stroke-linejoin: miter; stroke-miterlimit: 4; fill: rgb(255,255,255); fill-rule: nonzero; opacity: 1; visibility: hidden;" vector-effect="non-scaling-stroke"  x="-540" y="-540" rx="0" ry="0" width="1080" height="1080" />
</g>
<g transform="matrix(1 0 0 1 540 540)" id="242b659f-18b7-4662-a89c-2c5ec400030d"  >
</g>
<g transform="matrix(NaN NaN NaN NaN 0 0)"  >
<g style=""   >
</g>
</g>
<g transform="matrix(NaN NaN NaN NaN 0 0)"  >
<g style=""   >
</g>
</g>
<g transform="matrix(1 0 0 1 540 540)"  >
<g style="" vector-effect="non-scaling-stroke"   >
		<g transform="matrix(0.13 0 0 -0.13 1.27 -112.43)"  >
<path style="stroke: none; stroke-width: 1; stroke-dasharray: none; stroke-linecap: butt; stroke-dashoffset: 0; stroke-linejoin: miter; stroke-miterlimit: 4; fill: rgb(255,255,255); fill-rule: nonzero; opacity: 1;" vector-effect="non-scaling-stroke"  transform=" translate(-2373.71, -3889.56)" d="M 1354 5931 C 1171 5881 1066 5784 1000 5601 C 937 5428 940 5246 1010 5110 C 1038 5056 1116 4974 1183 4928 C 1263 4873 1337 4845 1477 4815 C 1541 4801 1604 4783 1617 4775 C 1678 4735 1727 4658 1736 4587 C 1751 4482 1638 4347 1517 4325 C 1452 4312 1387 4337 1262 4420 C 1068 4550 929 4593 710 4594 C 626 4595 554 4590 520 4581 C 393 4549 273 4475 193 4378 C 139 4313 67 4167 46 4079 C -25 3786 130 3547 445 3464 C 504 3448 554 3445 750 3445 C 973 3445 987 3443 1027 3422 C 1103 3382 1150 3298 1150 3202 C 1150 3128 1123 3084 1060 3053 C 982 3015 864 3005 482 3005 C 205 3005 131 3002 135 2993 C 142 2973 290 2741 298 2737 C 302 2735 535 2737 815 2742 C 1491 2755 1627 2743 1810 2653 C 1913 2603 2013 2502 2063 2400 C 2123 2277 2163 2108 2186 1888 L 2191 1830 L 2375 1830 L 2558 1830 L 2564 1907 C 2574 2022 2597 2149 2626 2246 C 2719 2568 2907 2706 3298 2740 C 3388 2748 3572 2749 3930 2743 C 4208 2738 4440 2736 4447 2740 C 4457 2744 4620 2992 4620 3002 C 4620 3004 4461 3005 4268 3005 C 3811 3005 3698 3021 3632 3093 C 3557 3174 3598 3342 3712 3417 L 3754 3445 L 3999 3445 C 4276 3446 4305 3451 4445 3520 C 4587 3589 4673 3693 4704 3830 C 4735 3965 4717 4079 4640 4236 C 4557 4407 4441 4513 4276 4567 C 4205 4590 4178 4593 4055 4594 C 3825 4596 3678 4551 3483 4420 C 3345 4327 3294 4310 3211 4330 C 3147 4345 3062 4418 3029 4486 C 2986 4575 3025 4699 3115 4762 C 3144 4782 3193 4798 3287 4819 C 3556 4879 3713 5005 3774 5209 C 3811 5334 3786 5531 3715 5676 C 3612 5887 3377 5987 3108 5936 C 2831 5883 2584 5728 2432 5510 C 2407 5474 2383 5441 2380 5437 C 2376 5432 2348 5464 2318 5507 C 2250 5604 2132 5717 2031 5781 C 1819 5917 1535 5980 1354 5931 z M 1652 5665 C 1835 5627 1990 5500 2084 5314 C 2178 5125 2183 4898 2099 4664 C 2071 4587 2050 4558 2050 4594 C 2050 4602 2039 4645 2025 4689 C 1980 4831 1867 4970 1747 5031 C 1726 5042 1663 5060 1607 5071 C 1399 5110 1325 5152 1273 5258 C 1249 5306 1245 5328 1245 5395 C 1245 5465 1249 5482 1275 5529 C 1348 5661 1468 5704 1652 5665 z M 3316 5665 C 3383 5646 3443 5592 3477 5522 C 3518 5438 3516 5348 3471 5256 C 3419 5150 3348 5109 3146 5071 C 3015 5046 2957 5016 2869 4930 C 2794 4855 2742 4762 2714 4651 C 2704 4612 2692 4580 2689 4580 C 2685 4580 2668 4615 2651 4658 C 2485 5090 2681 5557 3072 5660 C 3161 5683 3250 5685 3316 5665 z M 2426 4463 C 2558 4251 2764 4104 3018 4042 C 3079 4027 3131 4012 3134 4009 C 3137 4007 3129 3975 3116 3940 C 3054 3769 3036 3528 3074 3365 C 3092 3285 3133 3172 3170 3100 L 3190 3061 L 3148 3050 C 3013 3015 2977 3003 2898 2970 C 2707 2888 2553 2763 2449 2607 C 2417 2557 2390 2511 2390 2504 C 2390 2470 2368 2485 2341 2538 C 2222 2773 1980 2950 1661 3034 C 1610 3048 1566 3061 1564 3063 C 1562 3065 1573 3094 1590 3127 C 1712 3372 1729 3636 1640 3914 C 1623 3968 1610 4013 1612 4014 C 1614 4015 1659 4026 1713 4038 C 1818 4061 1936 4107 2027 4162 C 2109 4210 2258 4361 2320 4458 C 2349 4503 2374 4540 2376 4540 C 2377 4540 2400 4505 2426 4463 z M 855 4285 C 936 4265 1064 4200 1125 4150 C 1310 3996 1414 3743 1397 3485 C 1387 3338 1383 3336 1326 3446 C 1261 3571 1182 3657 1098 3696 C 1035 3725 1034 3725 875 3721 C 527 3714 528 3714 485 3735 C 405 3775 342 3859 320 3955 C 312 3992 313 4015 325 4062 C 353 4172 422 4244 537 4280 C 611 4304 771 4306 855 4285 z M 4242 4271 C 4273 4259 4317 4231 4340 4209 C 4478 4075 4454 3863 4288 3749 C 4227 3708 4151 3702 3955 3723 C 3810 3739 3768 3737 3680 3705 C 3566 3665 3506 3603 3418 3439 C 3394 3393 3372 3364 3367 3369 C 3362 3374 3356 3431 3353 3496 C 3349 3592 3352 3634 3369 3715 C 3425 3989 3618 4206 3872 4281 C 3962 4308 4161 4302 4242 4271 z" stroke-linecap="round" />
</g>
		<g transform="matrix(0.13 0 0 -0.13 -151.89 110.55)"  >
<path style="stroke: none; stroke-width: 1; stroke-dasharray: none; stroke-linecap: butt; stroke-dashoffset: 0; stroke-linejoin: miter; stroke-miterlimit: 4; fill: rgb(255,255,255); fill-rule: nonzero; opacity: 1;" vector-effect="non-scaling-stroke"  transform=" translate(-1225, -2217.21)" d="M 713 2463 C 561 2460 510 2457 510 2447 C 511 2441 543 2381 584 2315 L 656 2195 L 1026 2194 C 1266 2194 1419 2189 1465 2181 C 1648 2150 1796 2087 1890 2003 C 1921 1975 1940 1964 1940 1973 C 1940 2013 1878 2226 1854 2271 C 1771 2423 1657 2456 1195 2463 C 1041 2465 824 2465 713 2463 z" stroke-linecap="round" />
</g>
		<g transform="matrix(0.13 0 0 -0.13 154.82 110.47)"  >
<path style="stroke: none; stroke-width: 1; stroke-dasharray: none; stroke-linecap: butt; stroke-dashoffset: 0; stroke-linejoin: miter; stroke-miterlimit: 4; fill: rgb(255,255,255); fill-rule: nonzero; opacity: 1;" vector-effect="non-scaling-stroke"  transform=" translate(-3525.37, -2217.86)" d="M 3330 2460 C 3109 2442 3032 2420 2957 2351 C 2902 2300 2877 2249 2840 2109 C 2798 1950 2799 1948 2868 2010 C 2933 2069 3055 2131 3150 2154 C 3291 2188 3367 2193 3729 2194 L 4094 2195 L 4168 2323 C 4209 2393 4241 2452 4239 2454 C 4230 2463 3425 2467 3330 2460 z" stroke-linecap="round" />
</g>
		<g transform="matrix(0.13 0 0 -0.13 -137.93 147.49)"  >
<path style="stroke: none; stroke-width: 1; stroke-dasharray: none; stroke-linecap: butt; stroke-dashoffset: 0; stroke-linejoin: miter; stroke-miterlimit: 4; fill: rgb(255,255,255); fill-rule: nonzero; opacity: 1;" vector-effect="non-scaling-stroke"  transform=" translate(-1329.72, -1940.14)" d="M 1273 1984 L 1225 1888 L 1280 1840 C 1342 1785 1354 1786 1398 1850 C 1434 1904 1444 1954 1425 1995 C 1409 2028 1352 2080 1331 2080 C 1326 2080 1300 2037 1273 1984 z" stroke-linecap="round" />
</g>
		<g transform="matrix(0.13 0 0 -0.13 -220.49 213.63)"  >
<path style="stroke: none; stroke-width: 1; stroke-dasharray: none; stroke-linecap: butt; stroke-dashoffset: 0; stroke-linejoin: miter; stroke-miterlimit: 4; fill: rgb(255,255,255); fill-rule: nonzero; opacity: 1;" vector-effect="non-scaling-stroke"  transform=" translate(-710.51, -1444.11)" d="M 801 1862 C 795 1851 773 1801 751 1751 C 710 1656 695 1599 685 1490 C 667 1308 645 1167 623 1097 C 610 1053 602 1015 605 1012 C 618 999 670 1074 701 1150 C 743 1250 767 1344 780 1460 C 805 1699 820 1873 816 1877 C 814 1880 807 1873 801 1862 z" stroke-linecap="round" />
</g>
		<g transform="matrix(0.13 0 0 -0.13 185.31 178.42)"  >
<path style="stroke: none; stroke-width: 1; stroke-dasharray: none; stroke-linecap: butt; stroke-dashoffset: 0; stroke-linejoin: miter; stroke-miterlimit: 4; fill: rgb(255,255,255); fill-rule: nonzero; opacity: 1;" vector-effect="non-scaling-stroke"  transform=" translate(-3754, -1708.22)" d="M 3696 1753 L 3648 1655 L 3691 1617 C 3760 1557 3766 1555 3796 1587 C 3834 1628 3860 1684 3860 1725 C 3860 1754 3852 1769 3814 1805 C 3789 1830 3763 1850 3756 1850 C 3750 1850 3723 1806 3696 1753 z" stroke-linecap="round" />
</g>
		<g transform="matrix(0.13 0 0 -0.13 -251.76 179.98)"  >
<path style="stroke: none; stroke-width: 1; stroke-dasharray: none; stroke-linecap: butt; stroke-dashoffset: 0; stroke-linejoin: miter; stroke-miterlimit: 4; fill: rgb(255,255,255); fill-rule: nonzero; opacity: 1;" vector-effect="non-scaling-stroke"  transform=" translate(-476, -1696.54)" d="M 457 1822 C 448 1812 425 1770 406 1728 L 372 1653 L 425 1600 C 477 1548 478 1548 503 1565 C 536 1586 580 1674 580 1718 C 580 1746 571 1762 536 1796 C 487 1845 480 1848 457 1822 z" stroke-linecap="round" />
</g>
		<g transform="matrix(0.13 0 0 -0.13 -123.09 182.85)"  >
<path style="stroke: none; stroke-width: 1; stroke-dasharray: none; stroke-linecap: butt; stroke-dashoffset: 0; stroke-linejoin: miter; stroke-miterlimit: 4; fill: rgb(255,255,255); fill-rule: nonzero; opacity: 1;" vector-effect="non-scaling-stroke"  transform=" translate(-1440.99, -1675)" d="M 1384 1725 L 1336 1629 L 1385 1580 C 1412 1552 1439 1530 1445 1530 C 1466 1530 1519 1595 1535 1640 C 1544 1664 1548 1697 1545 1711 C 1539 1738 1460 1820 1441 1820 C 1435 1820 1410 1777 1384 1725 z" stroke-linecap="round" />
</g>
		<g transform="matrix(0.13 0 0 -0.13 -151.41 184.18)"  >
<path style="stroke: none; stroke-width: 1; stroke-dasharray: none; stroke-linecap: butt; stroke-dashoffset: 0; stroke-linejoin: miter; stroke-miterlimit: 4; fill: rgb(255,255,255); fill-rule: nonzero; opacity: 1;" vector-effect="non-scaling-stroke"  transform=" translate(-1228.62, -1665)" d="M 1174 1733 C 1115 1605 1116 1618 1169 1566 C 1195 1541 1223 1520 1232 1520 C 1252 1520 1293 1572 1316 1625 C 1340 1682 1328 1721 1273 1769 C 1248 1792 1223 1810 1218 1810 C 1213 1810 1193 1775 1174 1733 z" stroke-linecap="round" />
</g>
		<g transform="matrix(0.13 0 0 -0.13 76.17 193.23)"  >
<path style="stroke: none; stroke-width: 1; stroke-dasharray: none; stroke-linecap: butt; stroke-dashoffset: 0; stroke-linejoin: miter; stroke-miterlimit: 4; fill: rgb(255,255,255); fill-rule: nonzero; opacity: 1;" vector-effect="non-scaling-stroke"  transform=" translate(-2935.51, -1597.16)" d="M 2907 1698 C 2894 1674 2871 1632 2857 1604 L 2831 1553 L 2886 1499 C 2948 1438 2955 1438 3004 1508 C 3023 1535 3034 1565 3038 1600 C 3043 1650 3042 1652 2996 1695 C 2971 1720 2946 1740 2941 1740 C 2936 1740 2921 1721 2907 1698 z" stroke-linecap="round" />
</g>
		<g transform="matrix(0.13 0 0 -0.13 80.75 272.22)"  >
<path style="stroke: none; stroke-width: 1; stroke-dasharray: none; stroke-linecap: butt; stroke-dashoffset: 0; stroke-linejoin: miter; stroke-miterlimit: 4; fill: rgb(255,255,255); fill-rule: nonzero; opacity: 1;" vector-effect="non-scaling-stroke"  transform=" translate(-2969.86, -1004.67)" d="M 2293 1588 C 2183 1438 2040 1271 1829 1043 C 1685 887 1650 855 1650 877 C 1650 881 1666 1007 1686 1158 C 1705 1309 1720 1445 1718 1459 C 1716 1479 1707 1466 1682 1400 C 1663 1353 1640 1281 1630 1240 C 1604 1138 1569 819 1563 629 C 1556 448 1568 396 1625 340 C 1653 312 1667 307 1703 307 C 1810 307 1901 408 1966 595 C 1981 639 1996 679 2000 683 C 2004 688 2030 675 2056 654 C 2159 575 2244 552 2455 544 C 3012 522 3501 685 3967 1047 C 4164 1200 4267 1319 4323 1460 C 4351 1531 4383 1647 4378 1661 C 4372 1678 4288 1553 4244 1460 C 4191 1350 4180 1337 4080 1261 C 3519 834 2879 678 2185 800 C 2086 818 1955 839 1893 849 L 1782 865 L 1978 1085 C 2179 1312 2266 1420 2318 1512 C 2350 1568 2393 1686 2388 1702 C 2386 1707 2343 1656 2293 1588 z M 1858 725 C 1882 715 1905 699 1911 688 C 1926 661 1905 606 1869 575 C 1844 554 1828 550 1779 550 C 1729 550 1715 554 1695 575 C 1674 595 1670 609 1670 654 C 1670 702 1673 711 1698 730 C 1729 755 1786 753 1858 725 z" stroke-linecap="round" />
</g>
		<g transform="matrix(0.13 0 0 -0.13 -39.03 218.43)"  >
<path style="stroke: none; stroke-width: 1; stroke-dasharray: none; stroke-linecap: butt; stroke-dashoffset: 0; stroke-linejoin: miter; stroke-miterlimit: 4; fill: rgb(255,255,255); fill-rule: nonzero; opacity: 1;" vector-effect="non-scaling-stroke"  transform=" translate(-2071.48, -1408.12)" d="M 2067 1413 C 1998 1332 1943 1264 1945 1261 C 1954 1252 2024 1315 2086 1388 C 2154 1467 2206 1547 2197 1556 C 2194 1559 2136 1495 2067 1413 z" stroke-linecap="round" />
</g>
		<g transform="matrix(0.13 0 0 -0.13 91.63 228.87)"  >
<path style="stroke: none; stroke-width: 1; stroke-dasharray: none; stroke-linecap: butt; stroke-dashoffset: 0; stroke-linejoin: miter; stroke-miterlimit: 4; fill: rgb(255,255,255); fill-rule: nonzero; opacity: 1;" vector-effect="non-scaling-stroke"  transform=" translate(-3051.46, -1329.84)" d="M 2990 1384 C 2968 1337 2950 1292 2950 1286 C 2950 1272 3043 1190 3057 1190 C 3069 1190 3115 1239 3130 1269 C 3168 1342 3159 1394 3101 1443 C 3047 1488 3034 1481 2990 1384 z" stroke-linecap="round" />
</g>
		<g transform="matrix(0.13 0 0 -0.13 62.08 230.18)"  >
<path style="stroke: none; stroke-width: 1; stroke-dasharray: none; stroke-linecap: butt; stroke-dashoffset: 0; stroke-linejoin: miter; stroke-miterlimit: 4; fill: rgb(255,255,255); fill-rule: nonzero; opacity: 1;" vector-effect="non-scaling-stroke"  transform=" translate(-2829.78, -1320)" d="M 2808 1437 C 2781 1397 2730 1291 2730 1276 C 2730 1256 2826 1178 2847 1182 C 2879 1188 2923 1265 2928 1324 C 2932 1376 2931 1379 2891 1419 C 2844 1466 2828 1469 2808 1437 z" stroke-linecap="round" />
</g>
		<g transform="matrix(0.13 0 0 -0.13 -211.96 301.57)"  >
<path style="stroke: none; stroke-width: 1; stroke-dasharray: none; stroke-linecap: butt; stroke-dashoffset: 0; stroke-linejoin: miter; stroke-miterlimit: 4; fill: rgb(255,255,255); fill-rule: nonzero; opacity: 1;" vector-effect="non-scaling-stroke"  transform=" translate(-774.51, -784.55)" d="M 1511 1377 C 1498 1356 1477 1337 1462 1333 C 1448 1330 1420 1310 1400 1288 C 1377 1264 1354 1250 1339 1250 C 1322 1250 1295 1231 1255 1190 L 1196 1130 L 1120 1130 C 1029 1130 960 1111 882 1065 C 781 1006 710 931 570 733 C 411 511 294 385 160 293 C 61 225 10 182 10 167 C 10 145 141 209 260 290 C 394 382 485 473 589 619 C 757 854 829 906 1005 919 L 1100 925 L 1192 1020 C 1243 1072 1312 1131 1344 1150 C 1470 1225 1549 1323 1538 1391 C 1534 1414 1533 1413 1511 1377 z" stroke-linecap="round" />
</g>
		<g transform="matrix(0.13 0 0 -0.13 -278.26 285.32)"  >
<path style="stroke: none; stroke-width: 1; stroke-dasharray: none; stroke-linecap: butt; stroke-dashoffset: 0; stroke-linejoin: miter; stroke-miterlimit: 4; fill: rgb(255,255,255); fill-rule: nonzero; opacity: 1;" vector-effect="non-scaling-stroke"  transform=" translate(-277.25, -906.46)" d="M 455 1188 C 452 1181 432 1121 410 1056 C 346 869 329 845 180 723 C 47 613 42 597 152 625 C 255 650 320 689 358 745 C 422 843 510 1200 470 1200 C 464 1200 457 1194 455 1188 z" stroke-linecap="round" />
</g>
		<g transform="matrix(0.13 0 0 -0.13 242.12 305.5)"  >
<path style="stroke: none; stroke-width: 1; stroke-dasharray: none; stroke-linecap: butt; stroke-dashoffset: 0; stroke-linejoin: miter; stroke-miterlimit: 4; fill: rgb(255,255,255); fill-rule: nonzero; opacity: 1;" vector-effect="non-scaling-stroke"  transform=" translate(-4180.11, -755.09)" d="M 4234 1063 C 4180 944 4163 886 4146 750 C 4137 681 4119 582 4105 530 C 4058 353 4061 329 4117 423 C 4203 563 4227 650 4260 920 C 4271 1016 4283 1105 4286 1118 C 4296 1166 4268 1136 4234 1063 z" stroke-linecap="round" />
</g>
		<g transform="matrix(0.13 0 0 -0.13 290.21 320.26)"  >
<path style="stroke: none; stroke-width: 1; stroke-dasharray: none; stroke-linecap: butt; stroke-dashoffset: 0; stroke-linejoin: miter; stroke-miterlimit: 4; fill: rgb(255,255,255); fill-rule: nonzero; opacity: 1;" vector-effect="non-scaling-stroke"  transform=" translate(-4540.77, -644.39)" d="M 4529 864 C 4475 744 4473 737 4505 716 C 4540 693 4590 613 4590 580 C 4590 554 4533 493 4411 388 C 4352 337 4365 325 4446 355 C 4579 405 4611 434 4665 551 C 4716 664 4721 775 4678 851 C 4659 885 4591 950 4575 950 C 4572 950 4551 911 4529 864 z" stroke-linecap="round" />
</g>
		<g transform="matrix(0.13 0 0 -0.13 -149.97 329.57)"  >
<path style="stroke: none; stroke-width: 1; stroke-dasharray: none; stroke-linecap: butt; stroke-dashoffset: 0; stroke-linejoin: miter; stroke-miterlimit: 4; fill: rgb(255,255,255); fill-rule: nonzero; opacity: 1;" vector-effect="non-scaling-stroke"  transform=" translate(-1239.44, -574.61)" d="M 1199 733 C 1169 669 1151 617 1154 606 C 1157 594 1144 551 1124 507 C 1094 441 1089 421 1094 387 C 1105 317 1146 294 1212 319 C 1308 356 1412 593 1381 707 C 1368 756 1330 804 1289 825 C 1274 833 1258 840 1255 840 C 1252 840 1226 792 1199 733 z M 1259 544 C 1297 512 1298 491 1262 457 C 1211 408 1142 432 1154 494 C 1161 527 1196 570 1216 570 C 1223 570 1242 558 1259 544 z" stroke-linecap="round" />
</g>
		<g transform="matrix(0.13 0 0 -0.13 156.69 335.52)"  >
<path style="stroke: none; stroke-width: 1; stroke-dasharray: none; stroke-linecap: butt; stroke-dashoffset: 0; stroke-linejoin: miter; stroke-miterlimit: 4; fill: rgb(255,255,255); fill-rule: nonzero; opacity: 1;" vector-effect="non-scaling-stroke"  transform=" translate(-3539.38, -529.98)" d="M 3770 691 C 3759 662 3686 595 3644 572 C 3632 566 3604 545 3581 526 C 3558 507 3484 462 3415 425 C 3244 334 3239 322 3391 364 C 3443 378 3498 401 3531 424 C 3560 444 3593 460 3603 460 C 3672 460 3772 578 3795 688 C 3803 728 3787 730 3770 691 z" stroke-linecap="round" />
</g>
		<g transform="matrix(0.13 0 0 -0.13 -202.13 366.62)"  >
<path style="stroke: none; stroke-width: 1; stroke-dasharray: none; stroke-linecap: butt; stroke-dashoffset: 0; stroke-linejoin: miter; stroke-miterlimit: 4; fill: rgb(255,255,255); fill-rule: nonzero; opacity: 1;" vector-effect="non-scaling-stroke"  transform=" translate(-848.22, -296.71)" d="M 804 383 C 790 351 771 308 763 287 L 747 248 L 797 199 C 832 163 851 151 863 156 C 895 168 943 250 948 301 C 952 345 950 351 910 394 C 853 456 836 454 804 383 z" stroke-linecap="round" />
</g>
		<g transform="matrix(0.13 0 0 -0.13 -230.87 367.94)"  >
<path style="stroke: none; stroke-width: 1; stroke-dasharray: none; stroke-linecap: butt; stroke-dashoffset: 0; stroke-linejoin: miter; stroke-miterlimit: 4; fill: rgb(255,255,255); fill-rule: nonzero; opacity: 1;" vector-effect="non-scaling-stroke"  transform=" translate(-632.64, -286.79)" d="M 612 418 C 598 401 530 250 530 236 C 530 226 570 190 624 151 C 642 138 646 140 676 174 C 725 230 746 292 730 330 C 718 359 648 430 631 430 C 626 430 618 424 612 418 z" stroke-linecap="round" />
</g>
</g>
</g>
</svg>